<svg xmlns="http://www.w3.org/2000/svg" width="96" height="96"><style>.B{fill:#fff}.C{fill:#c2c3c9}</style><path d="M0 0h96v96H0z" class="B"/><path d="M12 12h19v24H12z" class="C"/><g class="B"><rect width="13" height="2" rx="1" x="14" y="25"/><rect width="15" height="1" rx=".5" x="14" y="29"/><rect width="10" height="1" rx=".5" x="14" y="32"/></g><path d="M39 12h19v24H39z" class="C"/><g class="B"><rect width="13" height="2" rx="1" x="41" y="25"/><rect width="15" height="1" rx=".5" x="41" y="29"/><rect width="10" height="1" rx=".5" x="41" y="32"/></g><path d="M66 12h19v24H66z" class="C"/><g class="B"><rect width="13" height="2" rx="1" x="68" y="25"/><rect width="15" height="1" rx=".5" x="68" y="29"/><rect width="10" height="1" rx=".5" x="68" y="32"/></g><path d="M12 44h19v24H12z" class="C"/><g class="B"><rect width="13" height="2" rx="1" x="14" y="57"/><rect width="15" height="1" rx=".5" x="14" y="61"/><rect width="10" height="1" rx=".5" x="14" y="64"/></g><path d="M39 44h19v24H39z" class="C"/><g class="B"><rect width="13" height="2" rx="1" x="41" y="57"/><rect width="15" height="1" rx=".5" x="41" y="61"/><rect width="10" height="1" rx=".5" x="41" y="64"/></g><path d="M66 44h19v24H66z" class="C"/><g class="B"><rect width="13" height="2" rx="1" x="68" y="57"/><rect width="15" height="1" rx=".5" x="68" y="61"/><rect width="10" height="1" rx=".5" x="68" y="64"/></g><path d="M12 76h19v20H12z" class="C"/><g class="B"><rect width="13" height="2" rx="1" x="14" y="89"/><rect width="15" height="1" rx=".5" x="14" y="93"/></g><path d="M39 76h19v20H39z" class="C"/><g class="B"><rect width="13" height="2" rx="1" x="41" y="89.047"/><rect width="15" height="1" rx=".5" x="41" y="93.047"/></g><path d="M66 76h19v20H66z" class="C"/><g class="B"><rect width="13" height="2" rx="1" x="68" y="89"/><rect width="15" height="1" rx=".5" x="68" y="93"/></g></svg>