<svg xmlns="http://www.w3.org/2000/svg" width="96" height="96"><path fill="#fff" d="M0 0h96v96H0z"/><rect width="18" height="2" rx="1" fill="#b7b8be" x="12" y="39"/><path d="M12 12h19v24H12z" fill="#c2c3c9"/><g fill="#b7b8be"><rect width="18" height="1" rx=".5" x="12" y="44"/><rect width="18" height="1" rx=".5" x="12" y="47"/><rect width="10" height="1" rx=".5" x="12" y="50"/><rect width="10" height="1" rx=".5" x="12" y="93"/><rect width="10" height="1" rx=".5" x="39" y="93"/><rect width="10" height="1" rx=".5" x="66" y="93"/><rect width="16" height="1" rx=".5" x="12" y="90"/><rect width="16" height="1" rx=".5" x="39" y="90"/><rect width="16" height="1" rx=".5" x="66" y="90"/><rect width="18" height="2" rx="1" x="39" y="39"/></g><path d="M39 12h19v24H39z" fill="#c2c3c9"/><g fill="#b7b8be"><rect width="18" height="1" rx=".5" x="39" y="44"/><rect width="18" height="1" rx=".5" x="39" y="47"/><rect width="10" height="1" rx=".5" x="39" y="50"/><rect width="18" height="2" rx="1" x="66" y="39"/></g><path d="M66 12h19v24H66z" fill="#c2c3c9"/><g fill="#b7b8be"><rect width="18" height="1" rx=".5" x="66" y="44"/><rect width="18" height="1" rx=".5" x="66" y="47"/><rect width="10" height="1" rx=".5" x="66" y="50"/><rect width="18" height="2" rx="1" x="12" y="86"/></g><path d="M12 59h19v24H12z" fill="#c2c3c9"/><rect width="18" height="2" rx="1" fill="#b7b8be" x="39" y="86"/><path d="M39 59h19v24H39z" fill="#c2c3c9"/><rect width="18" height="2" rx="1" fill="#b7b8be" x="66" y="86"/><path d="M66 59h19v24H66z" fill="#c2c3c9"/></svg>