<svg xmlns="http://www.w3.org/2000/svg" width="96" height="96"><path fill="#fff" d="M0 0h96v96H0z"/><path d="M12 10h24v24H12z" fill="#c2c3c9"/><g fill="#b7b8be"><rect width="40" height="2" rx="1" x="40" y="13"/><rect width="40" height="1" rx=".5" x="40" y="19"/><rect width="38" height="1" rx=".5" x="40" y="22"/><rect width="40" height="1" rx=".5" x="40" y="25"/><rect width="20" height="1" rx=".5" x="40" y="28"/></g><path d="M12 42h24v24H12z" fill="#c2c3c9"/><g fill="#b7b8be"><rect width="40" height="2" rx="1" x="40" y="45"/><rect width="40" height="1" rx=".5" x="40" y="51"/><rect width="38" height="1" rx=".5" x="40" y="54"/><rect width="40" height="1" rx=".5" x="40" y="57"/><rect width="20" height="1" rx=".5" x="40" y="60"/></g><path d="M12 74h24v22H12z" fill="#c2c3c9"/><g fill="#b7b8be"><rect width="40" height="2" rx="1" x="40" y="77"/><rect width="40" height="1" rx=".5" x="40" y="83"/><rect width="38" height="1" rx=".5" x="40" y="86"/><rect width="40" height="1" rx=".5" x="40" y="89"/><rect width="20" height="1" rx=".5" x="40" y="92"/></g></svg>